<svg width="136" height="36" viewBox="0 0 136 36" fill="none" xmlns="http://www.w3.org/2000/svg">
<g clip-path="url(#clip0_5812_5775)">
<path d="M15.1359 9.72754V22.2323H12.3476V11.5494L11.7187 14.4788L9.36302 22.2323H5.76954L3.41381 14.4788L2.78495 11.6023V22.2323H0V9.72754H4.9244L6.95738 16.9454L7.5696 19.6798L8.18183 16.9652L10.2148 9.73085H15.1359V9.72754Z" fill="black"/>
<path d="M25.3041 18.6251H19.1919C19.3549 19.8386 19.9305 20.3411 21.0784 20.3411C21.9402 20.3411 22.3561 20.0733 22.7853 19.217L25.1211 20.0402C24.5089 21.5777 23.1613 22.4175 21.0052 22.4175C18.2203 22.4175 16.3503 20.5957 16.3503 17.8448C16.3503 15.0211 18.1837 13.1299 20.9154 13.1299C23.5573 13.1299 25.3207 14.9517 25.3207 17.7026C25.3241 18.0002 25.3241 18.2316 25.3041 18.6251ZM19.1919 16.8562H22.6256C22.609 15.5535 22.07 15.1071 20.972 15.1071C19.8773 15.1038 19.3383 15.6064 19.1919 16.8562Z" fill="black"/>
<path d="M33.8453 19.8554V22.2327H26.1859V19.9281L30.0854 15.6761H26.3689V13.2988H33.6856V15.6199L30.9905 18.3543L29.1405 19.8554H33.8453Z" fill="black"/>
<path d="M42.5162 19.8554V22.2327H34.8568V19.9281L38.7563 15.6761H35.0364V13.2988H42.3532V15.6199L39.658 18.3543L37.8081 19.8554H42.5162Z" fill="black"/>
<path d="M52.9074 13.3012V22.2351H50.1756V20.2347C49.6732 21.6466 48.6484 22.4136 47.211 22.4136C44.639 22.4136 43.2183 20.5554 43.2183 17.788C43.2183 14.9842 44.5658 13.126 47.0313 13.126C48.5586 13.126 49.6566 13.9129 50.1756 15.3776V13.3045H52.9074V13.3012ZM50.2655 17.7847C50.2655 16.2836 49.5634 15.5859 48.0728 15.5859C46.6354 15.5859 45.95 16.2836 45.95 17.7847C45.95 19.2494 46.6321 19.9471 48.0728 19.9471C49.5634 19.9471 50.2655 19.2494 50.2655 17.7847Z" fill="black"/>
<path d="M63.0889 17.018V22.2355H60.3572V17.1767C60.3572 16.0856 59.8548 15.5863 58.8466 15.5863C57.7685 15.5863 57.0865 16.284 57.0865 17.8909V22.2322H54.3547V13.3016H57.0865V15.3218C57.519 13.8571 58.454 13.123 59.928 13.123C62.0641 13.123 63.0889 14.3894 63.0889 17.018Z" fill="black"/>
<path d="M64.2269 10.478C64.2269 9.4431 64.8391 8.87109 65.9338 8.87109C67.0484 8.87109 67.6773 9.4431 67.6773 10.478C67.6773 11.5493 67.0484 12.1378 65.9338 12.1378C64.8358 12.1378 64.2269 11.5493 64.2269 10.478ZM64.5862 13.3017H67.3179V22.2355H64.5862V13.3017Z" fill="black"/>
<path d="M77.6325 17.0609V22.2784H74.9008V17.223C74.9008 16.1318 74.3984 15.6326 73.3902 15.6326C72.3122 15.6326 71.6301 16.3302 71.6301 17.9371V22.2784H68.8984V13.3446H71.6301V15.3648C72.0626 13.9 72.9976 13.166 74.4716 13.166C76.6077 13.166 77.6325 14.4357 77.6325 17.0609Z" fill="black"/>
<path d="M87.9073 18.6681H81.795C81.958 19.8815 82.5337 20.3841 83.6816 20.3841C84.5434 20.3841 84.9593 20.1163 85.3885 19.2599L87.7242 20.0832C87.112 21.6207 85.7645 22.4605 83.6084 22.4605C80.8234 22.4605 78.9535 20.6387 78.9535 17.8878C78.9535 15.0641 80.7868 13.1729 83.5185 13.1729C86.1604 13.1729 87.9239 14.9947 87.9239 17.7456C87.9272 18.0432 87.9272 18.2779 87.9073 18.6681ZM81.795 16.8992H85.2288C85.2121 15.5964 84.6731 15.1501 83.5751 15.1501C82.4804 15.1501 81.9414 15.6493 81.795 16.8992Z" fill="black"/>
<path d="M136 0V36C124.524 30.6436 111.245 30.6436 99.7723 36V0C111.248 5.35636 124.527 5.35636 136 0Z" fill="#CEED00"/>
</g>
<defs>
<clipPath id="clip0_5812_5775">
<rect width="136" height="36" fill="white"/>
</clipPath>
</defs>
</svg>
